# xmcd CD database file
#
# Track frame offsets:
#	150
#	14266
#	28559
#	42960
#	56101
#	71421
#	86603
#	101844
#	116688
#	130202
#	142706
#	155402
#	169777
#	185080
#	199536
#	211024
#	224343
#	237649
#	250403
#	264781
#	277280
#	289282
#	301554
#
# Disc length: 4224 seconds
#
# Revision: 0
# Processed by: cddbd v1.5.2PL0 Copyright (c) Steve Scherf et al.
# Submitted via: CDex 1.97
#
DISCID=51107e17
DTITLE=Leroy Carr and Scrapper Blackwell - 1929-1935
DYEAR=1900
DGENRE=Blues
TTITLE0=Think of me thinking of you
TTITLE1=Lifeboat blues
TTITLE2=Gambler's blues
TTITLE3=Love hides all faults
TTITLE4=Blue with the blues
TTITLE5=Baby you done put that thing on me
TTITLE6=I won't miss you when you're gone
TTITLE7=Christmas in jail - ain't that a pain?
TTITLE8=That's tellin' 'em
TTITLE9=Goodbye blues
TTITLE10=The dirty dozen
TTITLE11=Workhouse blues
TTITLE12=Moonlight blues SCRAPPER BLACKWELL
TTITLE13=Springtime blues
TTITLE14=Rambling blues
TTITLE15=Mix that thing LEROY CARR
TTITLE16=When the sun goes down
TTITLE17=Bad luck all the time
TTITLE18=Six cold feet in the ground SCRAPPER BLACKWELL
TTITLE19=Alley sally blues
TTITLE20=No good woman blues
TTITLE21=Motherless boy blues
TTITLE22=Texas stomp
EXTD=
EXTT0=
EXTT1=
EXTT2=
EXTT3=
EXTT4=
EXTT5=
EXTT6=
EXTT7=
EXTT8=
EXTT9=
EXTT10=
EXTT11=
EXTT12=
EXTT13=
EXTT14=
EXTT15=
EXTT16=
EXTT17=
EXTT18=
EXTT19=
EXTT20=
EXTT21=
EXTT22=
PLAYORDER=
